<?xml version="1.0" encoding="utf-8"?>
<!-- Generator: Adobe Illustrator 17.1.0, SVG Export Plug-In . SVG Version: 6.00 Build 0)  -->
<!DOCTYPE svg PUBLIC "-//W3C//DTD SVG 1.0//EN" "http://www.w3.org/TR/2001/REC-SVG-20010904/DTD/svg10.dtd">
<svg version="1.0" id="Layer_1" xmlns="http://www.w3.org/2000/svg" xmlns:xlink="http://www.w3.org/1999/xlink" x="0px" y="0px"
	 viewBox="0 0 695.14 254.51" enable-background="new 0 0 695.14 254.51" xml:space="preserve">
<g>
	<g>
		<g>
			<g>
				<linearGradient id="SVGID_1_" gradientUnits="userSpaceOnUse" x1="24.9979" y1="108.2573" x2="76.6197" y2="108.2573">
					<stop  offset="0" style="stop-color:#AA1D2C"/>
					<stop  offset="0.3192" style="stop-color:#A71D2C"/>
					<stop  offset="0.5755" style="stop-color:#9D1D2C"/>
					<stop  offset="0.8092" style="stop-color:#8C1D2C"/>
					<stop  offset="1" style="stop-color:#781D2C"/>
				</linearGradient>
				<path fill="url(#SVGID_1_)" d="M76.62,88.183H53.102l-28.104,40.148h51.616c-1.65-6.413-2.527-13.135-2.527-20.063
					C74.086,101.333,74.966,94.603,76.62,88.183z"/>
				<linearGradient id="SVGID_2_" gradientUnits="userSpaceOnUse" x1="112.2301" y1="108.2573" x2="194.517" y2="108.2573">
					<stop  offset="0" style="stop-color:#781D2C"/>
					<stop  offset="0.1908" style="stop-color:#8C1D2C"/>
					<stop  offset="0.4245" style="stop-color:#9D1D2C"/>
					<stop  offset="0.6808" style="stop-color:#A71D2C"/>
					<stop  offset="1" style="stop-color:#AA1D2C"/>
				</linearGradient>
				<path fill="url(#SVGID_2_)" d="M189.126,88.183h-71.504c-3.423,5.909-5.391,12.765-5.391,20.085
					c0,7.311,1.964,14.159,5.379,20.063h71.529c3.415-5.904,5.379-12.752,5.379-20.063
					C194.517,100.948,192.548,94.092,189.126,88.183z"/>
			</g>
			<path fill="#AA1D2C" d="M231.133,128.331c1.65-6.413,2.527-13.135,2.527-20.063c0-6.936-0.88-13.666-2.533-20.085
				c-8.917-34.622-40.348-60.202-77.754-60.202c-37.406,0-68.837,25.581-77.754,60.202c-1.653,6.419-2.533,13.149-2.533,20.085
				c0,6.928,0.877,13.65,2.527,20.063c8.909,34.633,40.346,60.224,77.76,60.224c33.708,0,62.545-20.782,74.446-50.224h-47.856
				c-7.082,6.269-16.389,10.081-26.59,10.081c-14.86,0-27.824-8.08-34.765-20.08c-3.415-5.904-5.379-12.752-5.379-20.063
				c0-7.32,1.969-14.176,5.391-20.085c6.944-11.988,19.901-20.059,34.752-20.059c14.851,0,27.808,8.07,34.752,20.059
				c3.423,5.909,5.392,12.765,5.392,20.085c0,7.311-1.964,14.159-5.379,20.063H231.133z"/>
			<g>
				<g>
					<path fill="#B1B1B1" d="M451.321,112.701V28.354h-37.86l-83.528,121.645c-20.326-3.472-35.536-21.303-35.536-43.048
						c0-23.004,18.691-40.976,42.413-40.976c11.502,0,21.087,3.594,30.672,12.221l23.243-34.026
						c-16.774-13.419-32.349-19.17-53.915-19.17c-45.528,0-83.149,37.381-83.149,82.43c0,22.525,8.147,42.893,23.004,58.228
						c7.997,8.247,18.216,14.909,29.183,19.417c2.904,1.193,5.857,2.231,8.839,3.108c7.354,2.163,14.862,3.355,22.123,3.355
						c5.991,0,7.428,0,12.7-0.958l1.633-2.396h0.016l62.302-91.296v91.296h31.87l61.823-91.057v91.057h39.538V28.354h-38.819
						L451.321,112.701z"/>
				</g>
				<path fill="#B1B1B1" d="M644.759,102.032c-4.285-2.461-9.983-5.058-18.519-8.76c-17.478-7.422-22.265-11.252-22.265-17.715
					c0-6.465,5.027-10.056,14.604-10.056h13.998l25.5-37.109h-39.259c-18.914,0-33.518,4.548-43.332,13.647
					c-9.099,8.618-14.844,21.787-14.844,35.193c0,16.997,8.618,29.687,26.814,39.023c5.505,2.873,14.363,7.183,20.11,9.577
					c11.013,4.788,11.253,4.788,14.365,7.183c3.591,2.871,5.745,7.18,5.745,11.731c0,8.14-5.984,13.884-14.126,13.884
					c-7.9,0-13.166-5.745-13.884-14.843h-41.657c-0.479,27.294,21.787,47.644,51.95,47.644c16.281,0,32.561-4.788,41.657-12.449
					c1.827-1.533,3.506-3.155,5.058-4.887c8.295-8.608,13.469-21.102,13.469-33.816
					C670.142,123.742,661.957,111.292,644.759,102.032z"/>
			</g>
		</g>
		<g>
			<linearGradient id="SVGID_3_" gradientUnits="userSpaceOnUse" x1="24.9979" y1="108.2573" x2="76.6197" y2="108.2573">
				<stop  offset="0" style="stop-color:#AA1D2C"/>
				<stop  offset="0.3192" style="stop-color:#A71D2C"/>
				<stop  offset="0.5755" style="stop-color:#9D1D2C"/>
				<stop  offset="0.8092" style="stop-color:#8C1D2C"/>
				<stop  offset="1" style="stop-color:#781D2C"/>
			</linearGradient>
			<path fill="url(#SVGID_3_)" d="M76.62,88.183H53.102l-28.104,40.148h51.616c-1.65-6.413-2.527-13.135-2.527-20.063
				C74.086,101.333,74.966,94.603,76.62,88.183z"/>
			<linearGradient id="SVGID_4_" gradientUnits="userSpaceOnUse" x1="112.2301" y1="108.2573" x2="194.517" y2="108.2573">
				<stop  offset="0" style="stop-color:#781D2C"/>
				<stop  offset="0.1908" style="stop-color:#8C1D2C"/>
				<stop  offset="0.4245" style="stop-color:#9D1D2C"/>
				<stop  offset="0.6808" style="stop-color:#A71D2C"/>
				<stop  offset="1" style="stop-color:#AA1D2C"/>
			</linearGradient>
			<path fill="url(#SVGID_4_)" d="M189.126,88.183h-71.504c-3.423,5.909-5.391,12.765-5.391,20.085
				c0,7.311,1.964,14.159,5.379,20.063h71.529c3.415-5.904,5.379-12.752,5.379-20.063
				C194.517,100.948,192.548,94.092,189.126,88.183z"/>
		</g>
		<path fill="#AA1D2C" d="M231.133,128.331c1.65-6.413,2.527-13.135,2.527-20.063c0-6.936-0.88-13.666-2.533-20.085
			c-8.917-34.622-40.348-60.202-77.754-60.202c-37.406,0-68.837,25.581-77.754,60.202c-1.653,6.419-2.533,13.149-2.533,20.085
			c0,6.928,0.877,13.65,2.527,20.063c8.909,34.633,40.346,60.224,77.76,60.224c33.708,0,62.545-20.782,74.446-50.224h-47.856
			c-7.082,6.269-16.389,10.081-26.59,10.081c-14.86,0-27.824-8.08-34.765-20.08c-3.415-5.904-5.379-12.752-5.379-20.063
			c0-7.32,1.969-14.176,5.391-20.085c6.944-11.988,19.901-20.059,34.752-20.059c14.851,0,27.808,8.07,34.752,20.059
			c3.423,5.909,5.392,12.765,5.392,20.085c0,7.311-1.964,14.159-5.379,20.063H231.133z"/>
	</g>
	<g>
		<path fill="#AA1D2C" d="M217.503,227.063v2.136h-8.641v-16.008h8.641v2.16h-6.312v4.704h6.312v2.136h-6.312v4.872H217.503z"/>
		<path fill="#AA1D2C" d="M242.055,223.247l4.487,5.952h-2.928l-5.328-7.44v7.44h-2.328v-16.008h4.944
			c1.904,0,3.336,0.456,4.296,1.368c0.96,0.912,1.44,2.168,1.44,3.768c0,1.856-0.672,3.208-2.017,4.056
			C243.95,222.815,243.094,223.103,242.055,223.247z M238.286,215.351v6.096h1.608c2.943,0,4.416-1.04,4.416-3.12
			c0-0.896-0.324-1.616-0.973-2.16c-0.647-0.543-1.508-0.816-2.579-0.816H238.286z"/>
		<path fill="#AA1D2C" d="M272.847,227.063v2.136h-7.872v-16.008h2.328v13.872H272.847z"/>
		<path fill="#AA1D2C" d="M297.878,213.191l6.072,16.008h-2.472l-1.776-4.728h-5.76l-1.776,4.728h-2.472l6.071-16.008H297.878z
			 M294.782,222.335h4.104l-2.04-6.096L294.782,222.335z"/>
		<path fill="#AA1D2C" d="M334.118,213.191v16.008h-2.425l-7.968-12.36v12.36h-2.328v-16.008h2.544l7.824,12.192v-12.192H334.118z"
			/>
		<path fill="#AA1D2C" d="M358.67,221.231h10.104c-0.032,2.368-0.836,4.34-2.412,5.916c-1.576,1.576-3.523,2.364-5.844,2.364
			c-2.271,0-4.204-0.804-5.796-2.412s-2.388-3.564-2.388-5.868c0-2.336,0.792-4.312,2.376-5.928
			c1.584-1.616,3.512-2.424,5.784-2.424c1.503,0,2.896,0.388,4.176,1.164c1.279,0.776,2.28,1.828,3,3.156h-2.712
			c-1.345-1.456-2.801-2.184-4.368-2.184c-1.632,0-3.024,0.608-4.176,1.824c-1.152,1.216-1.729,2.68-1.729,4.392
			c0,1.664,0.584,3.104,1.752,4.32c1.168,1.216,2.56,1.824,4.176,1.824c1.393,0,2.656-0.48,3.792-1.44
			c0.704-0.592,1.28-1.448,1.729-2.568h-7.464V221.231z"/>
		<path fill="#B1B1B1" d="M420.638,225.263h2.855c-0.752,1.344-1.768,2.388-3.048,3.132c-1.28,0.744-2.688,1.116-4.224,1.116
			c-2.24,0-4.168-0.82-5.784-2.46s-2.424-3.604-2.424-5.892c0-2.304,0.8-4.26,2.399-5.868c1.601-1.608,3.544-2.412,5.832-2.412
			c3.248,0,5.704,1.464,7.368,4.392h-2.808c-1.296-1.503-2.801-2.256-4.513-2.256c-1.647,0-3.048,0.6-4.199,1.8
			c-1.152,1.2-1.729,2.648-1.729,4.344c0,1.68,0.58,3.136,1.74,4.368s2.54,1.848,4.14,1.848
			C417.957,227.375,419.421,226.671,420.638,225.263z"/>
		<path fill="#B1B1B1" d="M458.606,213.191v16.008h-2.328v-13.512l-5.448,13.512h-1.416l-5.447-13.512v13.512h-2.328v-16.008h3.672
			l4.8,12.264l4.824-12.264H458.606z"/>
		<path fill="#B1B1B1" d="M486.013,217.343h-2.376c-0.048-0.704-0.272-1.268-0.672-1.692c-0.4-0.424-0.896-0.636-1.488-0.636
			c-0.575,0-1.079,0.22-1.512,0.66c-0.432,0.44-0.647,0.956-0.647,1.548c0,0.624,0.184,1.1,0.552,1.428s1.06,0.636,2.076,0.924
			c1.016,0.288,1.76,0.568,2.231,0.84c0.472,0.272,0.892,0.672,1.26,1.2c0.561,0.8,0.841,1.728,0.841,2.784
			c0,1.456-0.473,2.672-1.416,3.648c-0.944,0.976-2.12,1.464-3.528,1.464c-1.44,0-2.624-0.472-3.552-1.416
			c-0.929-0.944-1.408-2.152-1.44-3.624h2.304c0.192,1.936,1.097,2.904,2.713,2.904c0.735,0,1.352-0.255,1.848-0.768
			s0.744-1.144,0.744-1.896c0-1.136-0.664-1.928-1.992-2.376l-0.576-0.192l-0.672-0.216c-0.912-0.288-1.504-0.504-1.776-0.648
			c-0.271-0.144-0.56-0.392-0.863-0.744c-0.721-0.8-1.08-1.784-1.08-2.952c0-1.359,0.436-2.484,1.308-3.372
			c0.872-0.888,1.972-1.332,3.3-1.332c1.248,0,2.28,0.412,3.097,1.236C485.509,214.939,485.949,216.015,486.013,217.343z"/>
	</g>
</g>
</svg>
