<?xml version="1.0" encoding="UTF-8" standalone="no"?>
<!-- Generator: Adobe Illustrator 17.1.0, SVG Export Plug-In . SVG Version: 6.00 Build 0)  -->

<svg
   xmlns:dc="http://purl.org/dc/elements/1.1/"
   xmlns:cc="http://creativecommons.org/ns#"
   xmlns:rdf="http://www.w3.org/1999/02/22-rdf-syntax-ns#"
   xmlns:svg="http://www.w3.org/2000/svg"
   xmlns="http://www.w3.org/2000/svg"
   xmlns:sodipodi="http://sodipodi.sourceforge.net/DTD/sodipodi-0.dtd"
   xmlns:inkscape="http://www.inkscape.org/namespaces/inkscape"
   version="1.0"
   id="Layer_1"
   x="0px"
   y="0px"
   viewBox="0 0 1920 1080"
   enable-background="new 0 0 695.14 254.51"
   xml:space="preserve"
   inkscape:version="0.48.4 r9939"
   width="100%"
   height="100%"
   sodipodi:docname="ErlangCMS_Logo-01.svg"><metadata
     id="metadata101"><rdf:RDF><cc:Work
         rdf:about=""><dc:format>image/svg+xml</dc:format><dc:type
           rdf:resource="http://purl.org/dc/dcmitype/StillImage" /><dc:title></dc:title></cc:Work></rdf:RDF></metadata><defs
     id="defs99" /><sodipodi:namedview
     pagecolor="#ffffff"
     bordercolor="#666666"
     borderopacity="1"
     objecttolerance="10"
     gridtolerance="10"
     guidetolerance="10"
     inkscape:pageopacity="0"
     inkscape:pageshadow="2"
     inkscape:window-width="1280"
     inkscape:window-height="753"
     id="namedview97"
     showgrid="false"
     inkscape:zoom="0.24311649"
     inkscape:cx="1496.1536"
     inkscape:cy="77.34522"
     inkscape:window-x="0"
     inkscape:window-y="1"
     inkscape:window-maximized="1"
     inkscape:current-layer="Layer_1" /><g
     id="g3"
     transform="matrix(2.1485412,0,0,2.1485412,202.23794,218.85031)"><g
       id="g5"><g
         id="g7"><g
           id="g9"><linearGradient
             id="SVGID_1_"
             gradientUnits="userSpaceOnUse"
             x1="24.9979"
             y1="108.2573"
             x2="76.619698"
             y2="108.2573"><stop
               offset="0"
               style="stop-color:#AA1D2C"
               id="stop12" /><stop
               offset="0.3192"
               style="stop-color:#A71D2C"
               id="stop14" /><stop
               offset="0.5755"
               style="stop-color:#9D1D2C"
               id="stop16" /><stop
               offset="0.8092"
               style="stop-color:#8C1D2C"
               id="stop18" /><stop
               offset="1"
               style="stop-color:#781D2C"
               id="stop20" /></linearGradient><path
             d="M 76.62,88.183 H 53.102 l -28.104,40.148 h 51.616 c -1.65,-6.413 -2.527,-13.135 -2.527,-20.063 -0.001,-6.935 0.879,-13.665 2.533,-20.085 z"
             id="path22"
             inkscape:connector-curvature="0"
             style="fill:url(#SVGID_1_)" /><linearGradient
             id="SVGID_2_"
             gradientUnits="userSpaceOnUse"
             x1="112.2301"
             y1="108.2573"
             x2="194.517"
             y2="108.2573"><stop
               offset="0"
               style="stop-color:#781D2C"
               id="stop25" /><stop
               offset="0.1908"
               style="stop-color:#8C1D2C"
               id="stop27" /><stop
               offset="0.4245"
               style="stop-color:#9D1D2C"
               id="stop29" /><stop
               offset="0.6808"
               style="stop-color:#A71D2C"
               id="stop31" /><stop
               offset="1"
               style="stop-color:#AA1D2C"
               id="stop33" /></linearGradient><path
             d="m 189.126,88.183 h -71.504 c -3.423,5.909 -5.391,12.765 -5.391,20.085 0,7.311 1.964,14.159 5.379,20.063 h 71.529 c 3.415,-5.904 5.379,-12.752 5.379,-20.063 -0.001,-7.32 -1.97,-14.176 -5.392,-20.085 z"
             id="path35"
             inkscape:connector-curvature="0"
             style="fill:url(#SVGID_2_)" /></g><path
           d="m 231.133,128.331 c 1.65,-6.413 2.527,-13.135 2.527,-20.063 0,-6.936 -0.88,-13.666 -2.533,-20.085 -8.917,-34.622 -40.348,-60.202 -77.754,-60.202 -37.406,0 -68.837,25.581 -77.754,60.202 -1.653,6.419 -2.533,13.149 -2.533,20.085 0,6.928 0.877,13.65 2.527,20.063 8.909,34.633 40.346,60.224 77.76,60.224 33.708,0 62.545,-20.782 74.446,-50.224 h -47.856 c -7.082,6.269 -16.389,10.081 -26.59,10.081 -14.86,0 -27.824,-8.08 -34.765,-20.08 -3.415,-5.904 -5.379,-12.752 -5.379,-20.063 0,-7.32 1.969,-14.176 5.391,-20.085 6.944,-11.988 19.901,-20.059 34.752,-20.059 14.851,0 27.808,8.07 34.752,20.059 3.423,5.909 5.392,12.765 5.392,20.085 0,7.311 -1.964,14.159 -5.379,20.063 h 42.996 z"
           id="path37"
           inkscape:connector-curvature="0"
           style="fill:#aa1d2c" /><g
           id="g39"><g
             id="g41"><path
               d="M 451.321,112.701 V 28.354 h -37.86 l -83.528,121.645 c -20.326,-3.472 -35.536,-21.303 -35.536,-43.048 0,-23.004 18.691,-40.976 42.413,-40.976 11.502,0 21.087,3.594 30.672,12.221 L 390.725,44.17 C 373.951,30.751 358.376,25 336.81,25 c -45.528,0 -83.149,37.381 -83.149,82.43 0,22.525 8.147,42.893 23.004,58.228 7.997,8.247 18.216,14.909 29.183,19.417 2.904,1.193 5.857,2.231 8.839,3.108 7.354,2.163 14.862,3.355 22.123,3.355 5.991,0 7.428,0 12.7,-0.958 l 1.633,-2.396 h 0.016 l 62.302,-91.296 v 91.296 h 31.87 l 61.823,-91.057 v 91.057 h 39.538 V 28.354 h -38.819 l -56.552,84.347 z"
               id="path43"
               inkscape:connector-curvature="0"
               style="fill:#b1b1b1" /></g><path
             d="m 644.759,102.032 c -4.285,-2.461 -9.983,-5.058 -18.519,-8.76 -17.478,-7.422 -22.265,-11.252 -22.265,-17.715 0,-6.465 5.027,-10.056 14.604,-10.056 h 13.998 l 25.5,-37.109 h -39.259 c -18.914,0 -33.518,4.548 -43.332,13.647 -9.099,8.618 -14.844,21.787 -14.844,35.193 0,16.997 8.618,29.687 26.814,39.023 5.505,2.873 14.363,7.183 20.11,9.577 11.013,4.788 11.253,4.788 14.365,7.183 3.591,2.871 5.745,7.18 5.745,11.731 0,8.14 -5.984,13.884 -14.126,13.884 -7.9,0 -13.166,-5.745 -13.884,-14.843 h -41.657 c -0.479,27.294 21.787,47.644 51.95,47.644 16.281,0 32.561,-4.788 41.657,-12.449 1.827,-1.533 3.506,-3.155 5.058,-4.887 8.295,-8.608 13.469,-21.102 13.469,-33.816 -10e-4,-16.537 -8.186,-28.987 -25.384,-38.247 z"
             id="path45"
             inkscape:connector-curvature="0"
             style="fill:#b1b1b1" /></g></g><g
         id="g47"><linearGradient
           id="SVGID_3_"
           gradientUnits="userSpaceOnUse"
           x1="24.9979"
           y1="108.2573"
           x2="76.619698"
           y2="108.2573"><stop
             offset="0"
             style="stop-color:#AA1D2C"
             id="stop50" /><stop
             offset="0.3192"
             style="stop-color:#A71D2C"
             id="stop52" /><stop
             offset="0.5755"
             style="stop-color:#9D1D2C"
             id="stop54" /><stop
             offset="0.8092"
             style="stop-color:#8C1D2C"
             id="stop56" /><stop
             offset="1"
             style="stop-color:#781D2C"
             id="stop58" /></linearGradient><path
           d="M 76.62,88.183 H 53.102 l -28.104,40.148 h 51.616 c -1.65,-6.413 -2.527,-13.135 -2.527,-20.063 -0.001,-6.935 0.879,-13.665 2.533,-20.085 z"
           id="path60"
           inkscape:connector-curvature="0"
           style="fill:url(#SVGID_3_)" /><linearGradient
           id="SVGID_4_"
           gradientUnits="userSpaceOnUse"
           x1="112.2301"
           y1="108.2573"
           x2="194.517"
           y2="108.2573"><stop
             offset="0"
             style="stop-color:#781D2C"
             id="stop63" /><stop
             offset="0.1908"
             style="stop-color:#8C1D2C"
             id="stop65" /><stop
             offset="0.4245"
             style="stop-color:#9D1D2C"
             id="stop67" /><stop
             offset="0.6808"
             style="stop-color:#A71D2C"
             id="stop69" /><stop
             offset="1"
             style="stop-color:#AA1D2C"
             id="stop71" /></linearGradient><path
           d="m 189.126,88.183 h -71.504 c -3.423,5.909 -5.391,12.765 -5.391,20.085 0,7.311 1.964,14.159 5.379,20.063 h 71.529 c 3.415,-5.904 5.379,-12.752 5.379,-20.063 -0.001,-7.32 -1.97,-14.176 -5.392,-20.085 z"
           id="path73"
           inkscape:connector-curvature="0"
           style="fill:url(#SVGID_4_)" /></g><path
         d="m 231.133,128.331 c 1.65,-6.413 2.527,-13.135 2.527,-20.063 0,-6.936 -0.88,-13.666 -2.533,-20.085 -8.917,-34.622 -40.348,-60.202 -77.754,-60.202 -37.406,0 -68.837,25.581 -77.754,60.202 -1.653,6.419 -2.533,13.149 -2.533,20.085 0,6.928 0.877,13.65 2.527,20.063 8.909,34.633 40.346,60.224 77.76,60.224 33.708,0 62.545,-20.782 74.446,-50.224 h -47.856 c -7.082,6.269 -16.389,10.081 -26.59,10.081 -14.86,0 -27.824,-8.08 -34.765,-20.08 -3.415,-5.904 -5.379,-12.752 -5.379,-20.063 0,-7.32 1.969,-14.176 5.391,-20.085 6.944,-11.988 19.901,-20.059 34.752,-20.059 14.851,0 27.808,8.07 34.752,20.059 3.423,5.909 5.392,12.765 5.392,20.085 0,7.311 -1.964,14.159 -5.379,20.063 h 42.996 z"
         id="path75"
         inkscape:connector-curvature="0"
         style="fill:#aa1d2c" /></g><g
       id="g77"><path
         d="m 217.503,227.063 v 2.136 h -8.641 v -16.008 h 8.641 v 2.16 h -6.312 v 4.704 h 6.312 v 2.136 h -6.312 v 4.872 h 6.312 z"
         id="path79"
         inkscape:connector-curvature="0"
         style="fill:#aa1d2c" /><path
         d="m 242.055,223.247 4.487,5.952 h -2.928 l -5.328,-7.44 v 7.44 h -2.328 v -16.008 h 4.944 c 1.904,0 3.336,0.456 4.296,1.368 0.96,0.912 1.44,2.168 1.44,3.768 0,1.856 -0.672,3.208 -2.017,4.056 -0.671,0.432 -1.527,0.72 -2.566,0.864 z m -3.769,-7.896 v 6.096 h 1.608 c 2.943,0 4.416,-1.04 4.416,-3.12 0,-0.896 -0.324,-1.616 -0.973,-2.16 -0.647,-0.543 -1.508,-0.816 -2.579,-0.816 h -2.472 z"
         id="path81"
         inkscape:connector-curvature="0"
         style="fill:#aa1d2c" /><path
         d="m 272.847,227.063 v 2.136 h -7.872 v -16.008 h 2.328 v 13.872 h 5.544 z"
         id="path83"
         inkscape:connector-curvature="0"
         style="fill:#aa1d2c" /><path
         d="m 297.878,213.191 6.072,16.008 h -2.472 l -1.776,-4.728 h -5.76 l -1.776,4.728 h -2.472 l 6.071,-16.008 h 2.113 z m -3.096,9.144 h 4.104 l -2.04,-6.096 -2.064,6.096 z"
         id="path85"
         inkscape:connector-curvature="0"
         style="fill:#aa1d2c" /><path
         d="m 334.118,213.191 v 16.008 h -2.425 l -7.968,-12.36 v 12.36 h -2.328 v -16.008 h 2.544 l 7.824,12.192 v -12.192 h 2.353 z"
         id="path87"
         inkscape:connector-curvature="0"
         style="fill:#aa1d2c" /><path
         d="m 358.67,221.231 h 10.104 c -0.032,2.368 -0.836,4.34 -2.412,5.916 -1.576,1.576 -3.523,2.364 -5.844,2.364 -2.271,0 -4.204,-0.804 -5.796,-2.412 -1.592,-1.608 -2.388,-3.564 -2.388,-5.868 0,-2.336 0.792,-4.312 2.376,-5.928 1.584,-1.616 3.512,-2.424 5.784,-2.424 1.503,0 2.896,0.388 4.176,1.164 1.279,0.776 2.28,1.828 3,3.156 h -2.712 c -1.345,-1.456 -2.801,-2.184 -4.368,-2.184 -1.632,0 -3.024,0.608 -4.176,1.824 -1.152,1.216 -1.729,2.68 -1.729,4.392 0,1.664 0.584,3.104 1.752,4.32 1.168,1.216 2.56,1.824 4.176,1.824 1.393,0 2.656,-0.48 3.792,-1.44 0.704,-0.592 1.28,-1.448 1.729,-2.568 h -7.464 v -2.136 z"
         id="path89"
         inkscape:connector-curvature="0"
         style="fill:#aa1d2c" /><path
         d="m 420.638,225.263 h 2.855 c -0.752,1.344 -1.768,2.388 -3.048,3.132 -1.28,0.744 -2.688,1.116 -4.224,1.116 -2.24,0 -4.168,-0.82 -5.784,-2.46 -1.616,-1.64 -2.424,-3.604 -2.424,-5.892 0,-2.304 0.8,-4.26 2.399,-5.868 1.601,-1.608 3.544,-2.412 5.832,-2.412 3.248,0 5.704,1.464 7.368,4.392 h -2.808 c -1.296,-1.503 -2.801,-2.256 -4.513,-2.256 -1.647,0 -3.048,0.6 -4.199,1.8 -1.152,1.2 -1.729,2.648 -1.729,4.344 0,1.68 0.58,3.136 1.74,4.368 1.16,1.232 2.54,1.848 4.14,1.848 1.714,0 3.178,-0.704 4.395,-2.112 z"
         id="path91"
         inkscape:connector-curvature="0"
         style="fill:#b1b1b1" /><path
         d="m 458.606,213.191 v 16.008 h -2.328 v -13.512 l -5.448,13.512 h -1.416 l -5.447,-13.512 v 13.512 h -2.328 v -16.008 h 3.672 l 4.8,12.264 4.824,-12.264 h 3.671 z"
         id="path93"
         inkscape:connector-curvature="0"
         style="fill:#b1b1b1" /><path
         d="m 486.013,217.343 h -2.376 c -0.048,-0.704 -0.272,-1.268 -0.672,-1.692 -0.4,-0.424 -0.896,-0.636 -1.488,-0.636 -0.575,0 -1.079,0.22 -1.512,0.66 -0.432,0.44 -0.647,0.956 -0.647,1.548 0,0.624 0.184,1.1 0.552,1.428 0.368,0.328 1.06,0.636 2.076,0.924 1.016,0.288 1.76,0.568 2.231,0.84 0.472,0.272 0.892,0.672 1.26,1.2 0.561,0.8 0.841,1.728 0.841,2.784 0,1.456 -0.473,2.672 -1.416,3.648 -0.944,0.976 -2.12,1.464 -3.528,1.464 -1.44,0 -2.624,-0.472 -3.552,-1.416 -0.929,-0.944 -1.408,-2.152 -1.44,-3.624 h 2.304 c 0.192,1.936 1.097,2.904 2.713,2.904 0.735,0 1.352,-0.255 1.848,-0.768 0.496,-0.513 0.744,-1.144 0.744,-1.896 0,-1.136 -0.664,-1.928 -1.992,-2.376 l -0.576,-0.192 -0.672,-0.216 c -0.912,-0.288 -1.504,-0.504 -1.776,-0.648 -0.271,-0.144 -0.56,-0.392 -0.863,-0.744 -0.721,-0.8 -1.08,-1.784 -1.08,-2.952 0,-1.359 0.436,-2.484 1.308,-3.372 0.872,-0.888 1.972,-1.332 3.3,-1.332 1.248,0 2.28,0.412 3.097,1.236 0.812,0.824 1.252,1.9 1.316,3.228 z"
         id="path95"
         inkscape:connector-curvature="0"
         style="fill:#b1b1b1" /></g></g></svg>